<?xml version="1.0" standalone="no"?>
<!DOCTYPE svg PUBLIC "-//W3C//DTD SVG 20010904//EN"
 "http://www.w3.org/TR/2001/REC-SVG-20010904/DTD/svg10.dtd">
<svg version="1.0" xmlns="http://www.w3.org/2000/svg"
 width="300.000000pt" height="300.000000pt" viewBox="0 0 300.000000 300.000000"
 preserveAspectRatio="xMidYMid meet">
<metadata>
Created by potrace 1.10, written by Peter Selinger 2001-2011
</metadata>
<g transform="translate(0.000000,300.000000) scale(0.100000,-0.100000)"
fill="#000000" stroke="none">
<path d="M2025 2771 c29 -4 43 -13 52 -31 9 -17 13 -20 13 -8 0 28 -29 48 -68
47 l-37 -2 40 -6z"/>
<path d="M1950 2730 c-35 -13 -66 -33 -87 -56 -46 -52 -124 -207 -132 -262 -6
-44 -8 -47 -40 -50 -52 -5 -57 9 -27 73 31 68 33 106 6 130 -24 22 -73 15
-121 -18 -48 -32 -99 -103 -99 -138 0 -38 -39 -66 -69 -49 -29 15 -35 51 -22
118 9 46 9 59 -3 70 -19 20 -58 9 -100 -28 -21 -19 -36 -26 -38 -18 -8 24 -37
-2 -48 -44 -23 -85 -24 -85 -48 -44 -21 35 -64 61 -87 53 -20 -8 -67 -85 -75
-124 -11 -48 2 -108 30 -138 27 -28 21 -70 -11 -80 -20 -7 -49 9 -49 28 0 5
-10 20 -22 31 -13 12 -28 31 -34 42 -10 15 -16 17 -30 8 -39 -23 -39 -39 0
-93 21 -28 44 -51 52 -51 17 0 19 -31 3 -47 -9 -9 -21 -7 -48 7 -58 31 -167
70 -196 70 -46 0 -40 -27 19 -81 31 -28 56 -59 56 -69 0 -10 7 -21 16 -24 10
-4 13 -13 9 -26 -5 -17 0 -23 25 -31 35 -13 35 -36 -1 -31 -155 21 -229 24
-244 12 -24 -20 -19 -28 38 -56 53 -27 117 -85 130 -117 4 -12 17 -17 41 -17
30 0 37 -4 42 -26 5 -17 1 -31 -10 -42 -18 -19 -8 -23 -139 53 -62 35 -93 29
-103 -20 -13 -71 51 -118 165 -120 71 -1 91 -16 91 -67 0 -27 -22 -39 -34 -19
-3 5 -18 11 -33 14 -16 3 -80 23 -143 46 -117 42 -166 49 -201 31 -20 -11 -25
-35 -10 -44 15 -10 235 -64 278 -69 38 -5 83 -25 83 -38 0 -4 -22 -16 -49 -28
-49 -21 -81 -52 -81 -79 0 -8 19 -33 43 -57 59 -57 131 -75 189 -46 36 17 40
18 57 2 29 -24 11 -54 -46 -80 -73 -34 -78 -37 -81 -54 -2 -11 6 -19 22 -23
38 -9 32 -29 -19 -61 -76 -47 -46 -96 33 -55 20 10 74 31 120 46 45 15 82 32
82 36 0 21 -41 31 -76 20 -31 -11 -37 -10 -49 7 -20 26 -19 29 20 53 20 12 42
35 50 51 14 26 14 31 -1 54 -9 14 -25 30 -36 36 -15 8 -16 14 -7 30 8 15 7 25
-2 37 -37 49 -66 72 -96 78 -18 3 -36 10 -39 15 -12 20 29 20 107 0 103 -26
140 -26 170 -1 l24 20 -28 25 c-24 22 -38 25 -100 25 -40 0 -78 4 -86 9 -8 5
-24 30 -37 56 -22 47 -22 47 -3 79 21 34 24 87 9 132 -7 20 -7 45 1 79 5 28
13 64 16 80 3 17 17 44 29 61 13 17 24 35 24 41 0 5 11 24 25 43 14 19 25 41
25 49 0 9 18 23 40 33 21 9 47 29 57 45 10 17 23 28 28 26 14 -4 72 52 80 78
4 10 27 39 52 64 34 35 44 51 40 67 -4 14 5 41 26 78 l32 55 3 -40 c5 -86 12
-105 45 -125 38 -23 80 -26 96 -6 9 11 18 12 42 3 24 -9 39 -8 76 5 44 16 47
16 71 -3 28 -21 63 -24 94 -8 16 9 24 7 42 -10 26 -25 72 -27 122 -6 34 14 44
45 13 36 -74 -19 -134 -6 -109 25 8 9 7 15 -6 22 -27 15 -10 38 50 72 63 36
186 152 211 199 37 73 3 95 -95 61z m20 -67 c0 -4 -28 -36 -62 -70 -67 -68
-106 -86 -67 -32 47 67 129 131 129 102z m-335 -153 c3 -5 1 -10 -4 -10 -6 0
-11 -6 -11 -12 -1 -29 -59 -106 -85 -112 -36 -9 -39 -4 -18 33 15 27 16 33 4
40 -11 7 -7 16 20 40 33 31 81 41 94 21z m-444 -149 c-6 -10 -17 -24 -26 -31
-14 -12 -18 -11 -26 1 -12 20 -11 29 5 29 7 0 19 7 26 15 16 20 33 9 21 -14z
m-151 4 c7 -8 21 -15 31 -15 48 0 52 -111 5 -142 -19 -13 -23 -9 -18 22 3 22
0 30 -11 30 -8 0 -18 -6 -20 -12 -11 -27 -27 18 -27 75 0 59 14 74 40 42z
m-247 -331 c33 -8 55 -40 38 -57 -8 -8 -15 -5 -26 9 -12 16 -16 17 -24 5 -8
-12 -12 -10 -22 12 -7 15 -16 27 -21 27 -4 0 -8 5 -8 11 0 6 8 8 18 5 9 -3 29
-8 45 -12z m-47 -219 c12 -9 15 -18 9 -22 -5 -5 -10 -15 -10 -23 0 -8 -5 -15
-11 -15 -11 0 -84 60 -84 70 0 12 78 4 96 -10z m-72 -219 c44 -26 35 -41 -15
-24 -38 12 -59 26 -59 39 0 16 34 9 74 -15z m286 -206 c0 -5 -13 -10 -30 -10
-16 0 -30 5 -30 10 0 6 14 10 30 10 17 0 30 -4 30 -10z m-112 -116 c29 -33 21
-43 -28 -37 -45 6 -56 -11 -17 -27 19 -7 16 -9 -19 -9 -39 -1 -104 15 -104 26
0 2 15 22 32 44 31 38 35 40 73 35 25 -4 49 -16 63 -32z"/>
<path d="M2271 2443 c-34 -17 -70 -77 -71 -116 0 -10 -4 -16 -8 -13 -11 7 -99
-17 -138 -37 -68 -35 -58 -121 23 -185 64 -50 99 -63 161 -61 57 2 142 -23
142 -42 0 -5 -16 -9 -35 -9 -51 0 -94 -26 -111 -65 -19 -47 -18 -62 11 -89 13
-12 24 -31 23 -42 0 -10 3 -32 7 -47 l8 -29 -31 16 c-16 8 -46 38 -67 66 -20
27 -50 59 -66 71 -28 20 -31 20 -54 5 -24 -16 -24 -18 -11 -44 23 -43 48 -65
112 -95 46 -22 68 -41 94 -78 29 -43 32 -52 22 -75 -7 -13 -12 -37 -12 -51 0
-28 45 -113 60 -113 19 0 19 18 0 53 -11 21 -16 37 -12 37 10 0 102 -192 96
-199 -2 -2 -21 8 -42 22 -56 39 -90 43 -132 15 -29 -20 -36 -31 -38 -65 -3
-35 -8 -43 -33 -53 -35 -15 -74 -63 -84 -102 -5 -19 -15 -29 -34 -33 -50 -11
-121 -104 -121 -159 0 -42 18 -39 38 6 22 50 68 108 86 108 18 0 42 -55 55
-124 11 -60 33 -96 58 -96 25 0 73 56 73 85 0 54 -66 152 -113 168 -8 3 -5 17
10 50 35 73 55 65 103 -37 38 -83 64 -111 94 -100 23 9 46 50 46 83 0 39 -55
111 -103 134 -62 31 -63 99 -1 105 22 2 41 -8 81 -43 81 -71 112 -55 100 51
-3 33 -1 44 9 44 31 0 10 44 -52 111 -44 49 -61 74 -53 79 6 4 8 13 5 19 -11
17 10 13 46 -9 54 -33 78 -23 78 30 0 14 -11 22 -38 29 -75 21 -102 23 -115
12 -10 -8 -19 -4 -36 19 -21 29 -21 30 -2 30 11 0 40 -6 63 -14 71 -24 114
-29 138 -16 19 10 21 18 17 48 -12 69 -104 136 -182 131 -66 -4 -94 31 -61 76
11 15 29 19 87 22 110 4 123 33 45 101 -24 21 -33 36 -29 50 7 27 -15 34 -137
39 -96 5 -107 8 -132 31 -30 27 -36 60 -16 80 18 18 84 14 128 -8 52 -26 69
-25 80 6 16 41 12 66 -16 95 l-25 27 31 22 c26 18 38 21 80 15 55 -8 65 -16
75 -65 10 -52 32 -80 60 -80 33 0 52 38 36 69 -14 26 -7 41 20 41 23 0 23 3 4
40 -16 31 -42 39 -62 19 -7 -7 -26 -2 -65 20 -62 35 -115 40 -167 14z m235
-89 c-3 -9 -6 -23 -6 -32 0 -15 -2 -15 -10 -2 -15 23 -12 50 6 50 11 0 14 -5
10 -16z m-239 -88 c-6 -17 -30 -18 -52 -2 -20 14 -20 14 0 36 l20 22 18 -23
c10 -12 16 -27 14 -33z m-120 -471 c29 -27 42 -44 32 -45 -17 0 -99 66 -99 81
0 18 19 8 67 -36z m274 -37 c40 -32 54 -54 40 -63 -15 -9 -123 32 -145 55 -20
22 -20 22 -1 15 64 -24 90 -10 38 20 l-28 16 29 -6 c15 -3 46 -20 67 -37z
m-83 -208 c3 -7 0 -10 -6 -6 -6 3 -15 -2 -21 -11 -10 -17 -10 -16 -11 3 0 35
28 45 38 14z m-40 -423 c25 -37 28 -57 9 -57 -10 0 -57 78 -57 95 0 13 28 -10
48 -38z m-133 -147 c19 -36 19 -70 1 -70 -11 0 -36 66 -36 94 0 17 22 2 35
-24z"/>
<path d="M750 2403 c-26 -33 -23 -76 5 -82 20 -3 20 -3 1 18 -36 40 15 97 64
71 26 -14 26 -44 0 -70 -11 -11 -16 -20 -11 -20 33 0 55 72 29 98 -21 21 -65
14 -88 -15z"/>
<path d="M777 2382 c-23 -25 -21 -32 7 -32 24 0 41 23 30 41 -8 14 -19 11 -37
-9z"/>
<path d="M1908 2375 c36 -16 41 -38 15 -67 -9 -10 -12 -18 -7 -18 18 0 34 24
34 50 0 33 -17 50 -49 50 -25 -1 -24 -2 7 -15z"/>
<path d="M605 2135 c-31 -30 -31 -47 -2 -71 12 -10 16 -12 10 -4 -21 23 -15
57 13 79 15 12 21 21 15 21 -7 0 -23 -11 -36 -25z"/>
<path d="M510 1890 c-22 -22 -26 -60 -8 -78 19 -19 33 -14 15 6 -24 26 -21 47
9 71 15 12 22 21 15 21 -6 0 -20 -9 -31 -20z"/>
<path d="M2026 1878 c-18 -26 -20 -47 -6 -68 7 -11 8 -6 4 16 -5 24 -1 37 15
53 12 12 17 21 12 21 -6 0 -17 -10 -25 -22z"/>
<path d="M342 1548 c-23 -23 -8 -98 20 -98 6 0 4 8 -5 18 -22 24 -22 50 0 74
18 20 4 25 -15 6z"/>
<path d="M2571 1524 c-27 -34 -26 -47 3 -81 24 -27 26 -27 53 -13 20 11 29 25
31 47 7 70 -47 98 -87 47z m63 0 c36 -35 0 -108 -42 -85 -19 10 -32 32 -32 52
0 12 37 49 49 49 5 0 17 -7 25 -16z"/>
<path d="M2602 1508 c-13 -13 -16 -41 -6 -51 12 -12 34 6 34 28 0 29 -13 38
-28 23z"/>
<path d="M1064 1420 c21 -32 20 -58 -1 -84 -18 -21 -18 -21 5 -2 28 24 28 57
1 87 l-21 24 16 -25z"/>
<path d="M1003 1012 c13 -14 17 -28 12 -43 -5 -14 -4 -19 4 -15 20 12 12 55
-11 67 -23 12 -23 12 -5 -9z"/>
<path d="M697 942 c-10 -10 -17 -23 -17 -29 0 -16 40 -63 53 -63 7 0 4 5 -5
11 -30 17 -38 43 -23 72 16 32 14 34 -8 9z"/>
<path d="M1333 928 c16 -11 33 -30 37 -42 7 -18 9 -18 9 -3 1 21 -42 67 -61
67 -7 0 0 -10 15 -22z"/>
<path d="M1790 901 c-39 -21 -87 -76 -92 -106 -5 -33 19 -23 52 23 17 24 38
46 46 49 25 9 53 -26 59 -76 13 -99 23 -111 60 -71 10 11 22 20 26 20 4 0 16
-25 25 -55 13 -41 22 -55 36 -55 10 0 21 6 24 13 6 17 -13 253 -21 268 -5 7
-14 4 -26 -7 -15 -13 -19 -28 -17 -58 3 -35 0 -40 -24 -47 -26 -7 -28 -5 -39
33 -10 38 -48 88 -66 88 -5 0 -24 -8 -43 -19z"/>
<path d="M1260 870 c-25 -22 -49 -40 -54 -40 -5 0 -30 10 -55 22 -61 30 -189
29 -258 -2 -57 -25 -109 -63 -124 -92 -15 -28 13 -99 52 -133 66 -55 154 -95
223 -102 57 -5 66 -4 72 12 10 25 -21 45 -68 45 -42 0 -48 10 -19 31 10 8 47
36 81 63 51 40 66 47 80 38 25 -15 85 -25 109 -17 33 10 26 43 -14 66 -19 12
-35 24 -35 27 1 4 21 22 46 40 33 25 44 39 42 55 -5 34 -29 30 -78 -13z m-126
-66 c28 -11 17 -30 -38 -68 -29 -20 -74 -57 -100 -82 -53 -53 -66 -53 -135 -4
-36 27 -42 35 -39 63 3 27 11 36 55 60 29 15 72 32 95 37 43 9 132 6 162 -6z
m92 -31 c17 -23 17 -33 1 -33 -22 0 -51 26 -43 38 10 17 27 15 42 -5z"/>
<path d="M2114 812 c19 -22 79 -31 90 -14 3 5 -8 6 -25 4 -17 -3 -40 3 -57 13
l-27 18 19 -21z"/>
<path d="M1660 795 c0 -26 27 -65 44 -65 8 0 24 9 37 21 23 19 23 20 2 10 -36
-18 -53 -13 -68 22 -11 23 -14 27 -15 12z"/>
<path d="M2062 678 c-1 -23 -10 -46 -22 -58 -11 -11 -16 -20 -10 -20 19 0 41
49 37 82 l-4 33 -1 -37z"/>
<path d="M1128 578 c17 -17 15 -48 -5 -70 -18 -20 -4 -25 15 -6 21 21 12 88
-11 88 -7 0 -7 -4 1 -12z"/>
</g>
</svg>
